<svg width="106" height="106" viewBox="0 0 106 106" fill="none" xmlns="http://www.w3.org/2000/svg">
<path d="M80.9952 18.7687L24.7679 18.7687C21.4742 18.7687 18.8864 21.3566 18.8864 24.6502L18.8864 81.1128C18.8864 84.4065 21.4742 86.9943 24.7679 86.9943L80.9952 86.9943C84.2889 86.9943 86.8767 84.4065 86.8767 81.1128L86.8767 24.6502C86.8767 21.3566 84.1712 18.7687 80.9952 18.7687ZM81.1128 78.7602C81.1128 80.0541 80.0542 81.1128 78.7602 81.1128L27.0028 81.1128C25.7089 81.1128 24.6502 80.0541 24.6502 78.7602L24.6502 27.0028C24.6502 25.7089 25.7089 24.6502 27.0028 24.6502L78.7602 24.6502C80.0542 24.6502 81.1128 25.7089 81.1128 27.0028L81.1128 78.7602Z" fill="#BC9060"/>
<path d="M15.2398 29.3554L1.12415 29.3554L1.12415 32.8843H15.2398V29.3554Z" fill="#BC9060"/>
<path d="M15.2398 36.4132H1.12415L1.12415 39.9422H15.2398V36.4132Z" fill="#BC9060"/>
<path d="M15.2398 43.4711H1.12415L1.12415 47H15.2398V43.4711Z" fill="#BC9060"/>
<path d="M15.2398 50.5289H1.12415L1.12415 54.0578H15.2398V50.5289Z" fill="#BC9060"/>
<path d="M15.2398 57.5867H1.12415L1.12415 61.1156H15.2398V57.5867Z" fill="#BC9060"/>
<path d="M15.2398 64.6445H1.12415L1.12415 68.1734H15.2398V64.6445Z" fill="#BC9060"/>
<path d="M15.2398 71.7024H1.12415L1.12415 75.2313H15.2398V71.7024Z" fill="#BC9060"/>
<path d="M104.639 29.3554L90.5232 29.3554V32.8843H104.639V29.3554Z" fill="#BC9060"/>
<path d="M104.639 36.4132H90.5232V39.9422H104.639V36.4132Z" fill="#BC9060"/>
<path d="M104.639 43.4711H90.5232V47H104.639V43.4711Z" fill="#BC9060"/>
<path d="M104.639 50.5289H90.5232V54.0578H104.639V50.5289Z" fill="#BC9060"/>
<path d="M104.639 57.5867H90.5232V61.1156H104.639V57.5867Z" fill="#BC9060"/>
<path d="M104.639 64.6445H90.5232V68.1734H104.639V64.6445Z" fill="#BC9060"/>
<path d="M104.639 71.7024H90.5232V75.2313H104.639V71.7024Z" fill="#BC9060"/>
<path d="M34.0606 1.12411L30.5317 1.12411L30.5317 15.2398H34.0606V1.12411Z" fill="#BC9060"/>
<path d="M41.1185 1.12411L37.5896 1.12411V15.2398H41.1185V1.12411Z" fill="#BC9060"/>
<path d="M48.1763 1.12411L44.6473 1.12411V15.2398H48.1763V1.12411Z" fill="#BC9060"/>
<path d="M55.2341 1.12411L51.7052 1.12411V15.2398H55.2341V1.12411Z" fill="#BC9060"/>
<path d="M62.292 1.12411L58.7631 1.12411V15.2398H62.292V1.12411Z" fill="#BC9060"/>
<path d="M69.3498 1.12411L65.8209 1.12411V15.2398H69.3498V1.12411Z" fill="#BC9060"/>
<path d="M76.4076 1.12411L72.8787 1.12411V15.2398H76.4076V1.12411Z" fill="#BC9060"/>
<path d="M34.0606 90.5232H30.5317L30.5317 104.639H34.0606V90.5232Z" fill="#BC9060"/>
<path d="M41.1185 90.5232H37.5896V104.639H41.1185V90.5232Z" fill="#BC9060"/>
<path d="M48.1763 90.5232H44.6473V104.639H48.1763V90.5232Z" fill="#BC9060"/>
<path d="M55.2341 90.5232H51.7052V104.639H55.2341V90.5232Z" fill="#BC9060"/>
<path d="M62.292 90.5232H58.7631V104.639H62.292V90.5232Z" fill="#BC9060"/>
<path d="M69.3498 90.5232H65.8209V104.639H69.3498V90.5232Z" fill="#BC9060"/>
<path d="M76.4076 90.5232H72.8787V104.639H76.4076V90.5232Z" fill="#BC9060"/>
<path d="M68.1735 71.7024H37.5896C35.5899 71.7024 34.0607 70.1732 34.0607 68.1735L34.0607 37.5896C34.0607 35.5898 35.5899 34.0606 37.5896 34.0606L68.1735 34.0606C70.1732 34.0606 71.7024 35.5898 71.7024 37.5896V68.1735C71.7024 70.1732 70.1732 71.7024 68.1735 71.7024Z" fill="#BC9060"/>
</svg>
