<svg width="154" height="100" viewBox="0 0 154 100" fill="none" xmlns="http://www.w3.org/2000/svg">
<path d="M88.3085 91.1367V92.9075C88.3085 93.8868 87.6264 94.6783 86.7826 94.6783H68.4722C67.6284 94.6783 66.9463 93.8868 66.9463 92.9075V91.1367L1.3341 91.1367L1.3341 94.6783C1.3341 94.6783 1.3341 99.9908 5.9117 99.9908L149.343 99.9908C153.921 99.9908 153.921 94.6783 153.921 94.6783V91.1367L88.3085 91.1367Z" fill="#555555"/>
<path d="M131.033 0.824249L24.2221 0.824249C21.6922 0.824249 19.6445 3.20248 19.6445 6.13674V7.90757L19.6445 80.5116C19.6445 83.4459 21.6922 85.8241 24.2221 85.8241H25.748L129.507 85.8241H131.033C133.56 85.8241 135.61 83.4459 135.61 80.5116L135.61 7.90757V6.13674C135.61 3.20248 133.561 0.824249 131.033 0.824249ZM129.507 78.7408L25.748 78.7408L25.748 7.90757L129.507 7.90757L129.507 78.7408Z" fill="#555555"/>
</svg>
