<svg width="303" height="89" viewBox="0 0 303 89" fill="none" xmlns="http://www.w3.org/2000/svg">
<g clip-path="url(#clip0_4_137)">
<path d="M114.5 54H103.7V50.6L106.2 50.1V34.5H102.5L102.4 37.1H98V30H120.3V37.1H115.9L115.8 34.5H112V50.1L114.5 50.6V54Z" fill="white"/>
<path d="M128.9 54.4C127.1 54.4 125.6 54 124.3 53.3C123 52.5 122 51.5 121.3 50.2C120.6 48.9 120.2 47.4 120.2 45.8V45.1C120.2 43.3 120.5 41.7 121.2 40.3C121.8 38.9 122.8 37.8 124 37C125.2 36.2 126.7 35.8 128.5 35.8C130.1 35.8 131.5 36.1 132.6 36.7C133.7 37.3 134.6 38.2 135.1 39.4C135.7 40.6 136 42.1 136 43.9V46.9H126.2V47C126.3 47.6 126.5 48.1 126.8 48.5C127.1 48.9 127.5 49.3 128 49.5C128.5 49.8 129.2 49.9 129.9 49.9C130.6 49.9 131.4 49.8 132.1 49.6C132.8 49.4 133.6 49.2 134.4 48.8L135.7 52.3C134.9 52.9 133.9 53.3 132.8 53.7C131.6 54.2 130.3 54.4 128.9 54.4ZM126.1 43.3L130.7 43.4V43C130.7 42.4 130.6 41.8 130.5 41.4C130.4 41 130.2 40.6 129.8 40.4C129.5 40.2 129.1 40.1 128.5 40.1C127.9 40.1 127.5 40.2 127.1 40.5C126.7 40.8 126.5 41.2 126.3 41.7C126.3 42.1 126.2 42.6 126.1 43.3Z" fill="white"/>
<path d="M139.1 54H138.4L138.3 49.6H138.7C139.4 49.6 139.9 49.4 140.3 49.1C140.6 48.8 140.8 48.2 140.9 47.4C141 46.6 141.1 45.4 141.1 43.8V40.1L138.6 39.6V36.2H155.9H158.4V39.6L155.9 40.1V50.1L158.4 50.6V54H147.6V50.6L150.1 50.1V40.6H146.9V43.7C146.9 47.2 146.3 49.8 145.1 51.5C144 53.2 142 54 139.1 54Z" fill="white"/>
<path d="M169.1 54.4C167.4 54.4 165.8 54 164.5 53.3C163.2 52.5 162.2 51.5 161.5 50.2C160.8 48.9 160.4 47.4 160.4 45.8V45.1C160.4 43.3 160.7 41.7 161.3 40.3C161.9 38.9 162.9 37.8 164.1 37C165.3 36.2 166.8 35.8 168.6 35.8C170.2 35.8 171.6 36.1 172.7 36.7C173.8 37.3 174.7 38.2 175.2 39.4C175.8 40.6 176.1 42.1 176.1 43.9V46.9H166.3V47C166.4 47.6 166.6 48.1 166.9 48.5C167.2 48.9 167.6 49.3 168.1 49.5C168.6 49.7 169.3 49.9 170 49.9C170.8 49.9 171.5 49.8 172.2 49.6C172.9 49.4 173.7 49.2 174.5 48.8L175.8 52.3C175 52.9 174 53.3 172.9 53.7C171.8 54.2 170.5 54.4 169.1 54.4ZM166.3 43.3L170.9 43.4V43C170.9 42.4 170.8 41.8 170.7 41.4C170.6 41 170.4 40.6 170 40.4C169.7 40.2 169.3 40.1 168.7 40.1C168.1 40.1 167.7 40.2 167.3 40.5C167 40.8 166.7 41.2 166.5 41.7C166.5 42.1 166.4 42.6 166.3 43.3Z" fill="white"/>
<path d="M188.3 54H178.7V50.6L181.2 50.1V40.1L178.7 39.6V36.2H181.2H188.2L192 47.6H192.1L195.9 36.2H203.2H205.7V39.6L203.3 40.1V50.1L205.8 50.6V54H196.2V50.6L197.5 50.1V44.5H197.4L194.1 54H190.2L187.1 44.9H187V50L188.3 50.5V54Z" fill="white"/>
<path d="M213.9 54.4C212.2 54.4 210.8 53.9 209.7 52.9C208.6 51.9 208.1 50.6 208.1 49C208.1 47.9 208.4 46.9 209 46C209.6 45.1 210.5 44.5 211.7 44C212.8 43.5 214.3 43.3 216.2 43.3H218.1V42.3C218.1 41.6 217.9 41 217.5 40.5C217.1 40 216.5 39.7 215.6 39.7C215.2 39.7 214.9 39.7 214.6 39.8C214.3 39.9 214 40 213.7 40.2L213.3 42.5H209.2L209.1 37.5C210.1 37 211.2 36.7 212.3 36.3C213.3 36 214.5 35.8 215.9 35.8C218.3 35.8 220.2 36.4 221.7 37.5C223.1 38.6 223.8 40.2 223.9 42.3V48.9C223.9 49.2 223.9 49.4 223.9 49.6C223.9 49.8 223.9 50.1 224 50.3L225.9 50.6V54H219.1C219 53.8 218.8 53.5 218.6 53.2C218.4 52.9 218.3 52.6 218.3 52.2C217.8 52.9 217.2 53.4 216.5 53.8C215.8 54.2 214.9 54.4 213.9 54.4ZM215.7 50.3C216.1 50.3 216.5 50.2 217 50C217.3 49.8 217.7 49.6 218 49.2V46.7H216.2C215.4 46.7 214.8 46.9 214.4 47.2C214 47.5 213.8 48 213.8 48.6C213.8 49.1 214 49.6 214.3 49.9C214.6 50.2 215.1 50.3 215.7 50.3Z" fill="white"/>
<path d="M235.6 54.4C233.8 54.4 232.3 54 231 53.2C229.8 52.4 228.8 51.3 228.1 50C227.4 48.6 227.1 47.1 227.1 45.3V44.9C227.1 43.1 227.5 41.5 228.2 40.2C228.9 38.8 229.9 37.8 231.2 37C232.5 36.2 233.9 35.8 235.6 35.8C237.3 35.8 238.8 36.1 240 36.6C241.2 37.1 242.2 37.7 242.9 38.2L242.8 43.8H238.5L237.8 40.6C237.6 40.4 237.3 40.3 237 40.1C236.7 40 236.4 39.9 236.2 39.9C235.4 39.9 234.7 40.1 234.2 40.4C233.7 40.8 233.4 41.3 233.2 42C233 42.7 232.9 43.6 232.9 44.8V45.2C232.9 46.4 233 47.3 233.3 48C233.6 48.7 233.9 49.2 234.4 49.5C234.8 49.8 235.3 49.9 235.7 49.9C236.4 49.9 236.9 49.7 237.3 49.4C237.7 49.1 238 48.5 238.2 47.9H243.1L243.2 48C242.9 49.4 242.5 50.6 242 51.5C241.5 52.4 240.7 53.1 239.7 53.6C238.5 54.1 237.2 54.4 235.6 54.4Z" fill="white"/>
<path d="M260 54H249.3V50.6L251.8 50.1V40.5H249.3L249.2 42.7H244.9V36.1H264.6V42.7H260.3L260.1 40.5H257.5V50.1L260 50.6V54Z" fill="white"/>
<path d="M274.1 54.4C272.4 54.4 270.8 54 269.5 53.3C268.2 52.5 267.2 51.5 266.5 50.2C265.8 48.9 265.4 47.4 265.4 45.8V45.1C265.4 43.3 265.7 41.7 266.4 40.3C267 38.9 268 37.8 269.2 37C270.4 36.2 271.9 35.8 273.7 35.8C275.3 35.8 276.7 36.1 277.8 36.7C278.9 37.3 279.8 38.2 280.3 39.4C280.9 40.6 281.2 42.1 281.2 43.9V46.9H271.4V47C271.5 47.6 271.7 48.1 272 48.5C272.3 48.9 272.7 49.3 273.2 49.5C273.7 49.8 274.4 49.9 275.1 49.9C275.8 49.9 276.6 49.8 277.3 49.6C278 49.4 278.8 49.2 279.6 48.8L280.9 52.4C280.1 53 279.1 53.4 278 53.8C276.8 54.2 275.5 54.4 274.1 54.4ZM271.3 43.3L275.9 43.4V43C275.9 42.4 275.8 41.8 275.7 41.4C275.6 41 275.4 40.6 275 40.4C274.7 40.2 274.3 40.1 273.7 40.1C273.1 40.1 272.6 40.2 272.3 40.5C272 40.8 271.7 41.2 271.5 41.7C271.5 42.1 271.4 42.6 271.3 43.3Z" fill="white"/>
<path d="M293.4 60.9H283.4V57.5L285.6 57V40.1L283.1 39.6V36.2H291L291.2 38.2C291.7 37.4 292.3 36.8 293 36.4C293.7 36 294.5 35.8 295.5 35.8C296.9 35.8 298.1 36.2 299.1 37C300.1 37.8 300.9 38.9 301.4 40.3C301.9 41.7 302.2 43.3 302.2 45.2V45.5C302.2 47.3 301.9 48.8 301.4 50.2C300.9 51.5 300.1 52.6 299.1 53.3C298.1 54 296.8 54.4 295.4 54.4C294.5 54.4 293.7 54.2 293.1 53.9C292.4 53.5 291.8 53.1 291.3 52.4V56.9L293.3 57.4V60.9H293.4ZM293.7 50C294.7 50 295.5 49.6 295.9 48.8C296.3 48 296.5 46.9 296.5 45.5V45.1C296.5 44.1 296.4 43.3 296.2 42.5C296 41.8 295.7 41.2 295.3 40.8C294.9 40.4 294.3 40.2 293.7 40.2C293.2 40.2 292.8 40.3 292.4 40.5C292 40.7 291.7 41 291.4 41.5V48.8C291.6 49.2 292 49.4 292.4 49.6C292.7 49.9 293.2 50 293.7 50Z" fill="white"/>
<path d="M27.3719 66.693H61.2169C64.2032 66.693 66.6918 64.2044 66.6918 61.2181V27.3731C66.6918 24.3867 64.2032 21.8981 61.2169 21.8981H27.3719C24.3856 21.8981 21.897 24.3867 21.897 27.3731V61.2181C21.897 64.2044 24.3856 66.693 27.3719 66.693ZM22.8924 27.3731C22.8924 24.8845 24.8833 22.8936 27.3719 22.8936H61.2169C63.7055 22.8936 65.6964 24.8845 65.6964 27.3731V61.2181C65.6964 63.7067 63.7055 65.6976 61.2169 65.6976H27.3719C24.8833 65.6976 22.8924 63.7067 22.8924 61.2181V27.3731Z" fill="url(#paint0_linear_4_137)"/>
<path d="M27.8677 61.2181H60.7173C61.0159 61.2181 61.215 61.019 61.215 60.7203V27.8708C61.215 27.5721 61.0159 27.373 60.7173 27.373H30.3563C30.2568 27.373 30.0577 27.4726 29.9581 27.4726L27.4695 29.9612C27.37 30.0607 27.37 30.1603 27.37 30.3594V60.7203C27.37 61.019 27.5691 61.2181 27.8677 61.2181ZM28.3654 30.5585L30.5554 28.3685H60.2196V60.2226H28.3654V30.5585Z" fill="url(#paint1_linear_4_137)"/>
<path d="M49.2716 38.8207H39.3172C39.0185 38.8207 38.8195 39.0198 38.8195 39.3184V49.2728C38.8195 49.5714 39.0185 49.7705 39.3172 49.7705H49.2716C49.5702 49.7705 49.7693 49.5714 49.7693 49.2728V39.3184C49.7693 39.0198 49.5702 38.8207 49.2716 38.8207ZM48.7739 48.7751H39.8149V39.8161H48.7739V48.7751Z" fill="url(#paint2_linear_4_137)"/>
<path d="M71.2482 50.4281C72.5423 50.4281 73.6373 49.3332 73.6373 48.0391C73.6373 46.745 72.5423 45.65 71.2482 45.65C69.9541 45.65 68.8591 46.745 68.8591 48.0391C68.8591 49.3332 69.9541 50.4281 71.2482 50.4281ZM71.2482 46.6455C72.0445 46.6455 72.6418 47.2427 72.6418 48.0391C72.6418 48.8354 72.0445 49.4327 71.2482 49.4327C70.4518 49.4327 69.8546 48.8354 69.8546 48.0391C69.8546 47.2427 70.4518 46.6455 71.2482 46.6455Z" fill="url(#paint3_linear_4_137)"/>
<path d="M30.6746 71.2493C30.6746 72.5434 31.7695 73.6383 33.0636 73.6383C34.3577 73.6383 35.4527 72.5434 35.4527 71.2493C35.4527 69.9552 34.3577 68.8602 33.0636 68.8602C31.7695 68.8602 30.6746 69.9552 30.6746 71.2493ZM34.4572 71.2493C34.4572 72.0456 33.86 72.6429 33.0636 72.6429C32.2673 72.6429 31.67 72.0456 31.67 71.2493C31.67 70.4529 32.2673 69.8557 33.0636 69.8557C33.86 69.8557 34.4572 70.4529 34.4572 71.2493Z" fill="url(#paint4_linear_4_137)"/>
<path d="M33.0245 19.7108C34.3186 19.7108 35.4136 18.6159 35.4136 17.3218C35.4136 16.2268 34.6172 15.2314 33.5222 15.0323V10.1546L40.0922 6.86964V15.0323C38.7981 15.3309 38.0017 16.5254 38.2008 17.8195C38.4994 19.1136 39.7935 19.9099 41.0876 19.6113C42.3817 19.3127 43.178 18.1181 42.8794 16.8241C42.6803 15.9282 41.9835 15.2314 41.0876 15.0323V0.498819C41.0876 0.200187 40.8885 0.00109863 40.5899 0.00109863C40.2912 0.00109863 40.0922 0.200187 40.0922 0.498819V5.77466L32.8254 9.45779C32.6263 9.45779 32.5268 9.65688 32.5268 9.85597V15.0323C31.3323 15.3309 30.4364 16.5254 30.735 17.8195C30.9341 18.9145 31.9295 19.7108 33.0245 19.7108ZM41.8839 17.3218C41.8839 18.1181 41.2867 18.7154 40.4903 18.7154C39.694 18.7154 39.1963 18.1181 39.1963 17.3218C39.1963 16.5254 39.7935 15.9282 40.5899 15.9282C41.2867 15.9282 41.8839 16.625 41.8839 17.3218ZM33.0245 15.9282C33.8209 15.9282 34.4181 16.5254 34.4181 17.3218C34.4181 18.1181 33.8209 18.7154 33.0245 18.7154C32.2282 18.7154 31.6309 18.1181 31.6309 17.3218C31.7304 16.625 32.3277 15.9282 33.0245 15.9282Z" fill="url(#paint5_linear_4_137)"/>
<path d="M48.038 19.7097C49.3321 19.7097 50.4271 18.6148 50.4271 17.3207C50.4271 16.2257 49.6307 15.2303 48.5357 15.0312V0.497721C48.5357 0.199088 48.3366 0 48.038 0C47.7394 0 47.5403 0.199088 47.5403 0.497721V15.0312C46.2462 15.3298 45.4498 16.5243 45.7485 17.8184C45.9476 18.9134 46.943 19.7097 48.038 19.7097ZM48.038 15.9271C48.8343 15.9271 49.4316 16.5243 49.4316 17.3207C49.4316 18.117 48.8343 18.7143 48.038 18.7143C47.2416 18.7143 46.6444 18.117 46.6444 17.3207C46.6444 16.6239 47.2416 15.9271 48.038 15.9271Z" fill="url(#paint6_linear_4_137)"/>
<path d="M55.525 19.7311C56.8191 19.7311 57.9141 18.6361 57.9141 17.3421C57.9141 16.048 56.8191 14.953 55.525 14.953C54.231 14.953 53.136 16.048 53.136 17.3421C53.136 18.6361 54.231 19.7311 55.525 19.7311ZM55.525 15.9484C56.3214 15.9484 56.9187 16.5457 56.9187 17.3421C56.9187 18.1384 56.3214 18.7357 55.525 18.7357C54.7287 18.7357 54.1314 18.1384 54.1314 17.3421C54.1314 16.5457 54.7287 15.9484 55.525 15.9484Z" fill="url(#paint7_linear_4_137)"/>
<path d="M88.0911 40.0933H82.8152L79.1321 32.8266C79.1321 32.6275 78.933 32.528 78.7339 32.528H73.5576C73.259 31.3334 72.0645 30.4375 70.7704 30.7362C69.4763 31.0348 68.68 32.2293 68.9786 33.5234C69.1777 34.8175 70.4717 35.6138 71.7658 35.4147C72.6617 35.2157 73.3585 34.5188 73.5576 33.6229H78.4353L81.7202 40.0933H73.5576C73.259 38.7992 72.0645 38.0029 70.7704 38.202C69.4763 38.5006 68.68 39.7947 68.9786 41.0888C69.1777 42.2833 70.4717 43.1792 71.7658 42.8806C72.6617 42.6815 73.3585 41.9847 73.5576 41.0888H88.0911C88.3897 41.0888 88.5888 40.8897 88.5888 40.591C88.5888 40.2924 88.3897 40.0933 88.0911 40.0933ZM71.2681 34.4193C70.4717 34.4193 69.8745 33.822 69.8745 33.0257C69.8745 32.2293 70.4717 31.6321 71.2681 31.6321C72.0645 31.6321 72.6617 32.2293 72.6617 33.0257C72.6617 33.822 71.9649 34.4193 71.2681 34.4193ZM71.2681 41.8851C70.4717 41.8851 69.8745 41.2878 69.8745 40.4915C69.8745 39.6951 70.4717 39.0979 71.2681 39.0979C72.0645 39.0979 72.6617 39.6951 72.6617 40.4915C72.6617 41.2878 71.9649 41.8851 71.2681 41.8851Z" fill="url(#paint8_linear_4_137)"/>
<path d="M88.0911 55.0286H73.5576C73.259 53.7345 72.0645 52.9382 70.7704 53.2368C69.4763 53.5355 68.68 54.73 68.9786 56.0241C69.1777 57.3181 70.4717 58.1145 71.7658 57.8159C72.6617 57.6168 73.3585 56.92 73.5576 56.0241H88.0911C88.3897 56.0241 88.5888 55.825 88.5888 55.5263C88.5888 55.2277 88.3897 55.0286 88.0911 55.0286ZM71.2681 56.92C70.4717 56.92 69.8745 56.3227 69.8745 55.5263C69.8745 54.73 70.4717 54.1327 71.2681 54.1327C72.0645 54.1327 72.6617 54.73 72.6617 55.5263C72.6617 56.3227 71.9649 56.92 71.2681 56.92Z" fill="url(#paint9_linear_4_137)"/>
<path d="M0.497721 33.5625H15.0312C15.3298 34.8565 16.5243 35.6529 17.8184 35.3542C19.1125 35.0556 19.9088 33.8611 19.6102 32.567C19.3116 31.2729 18.117 30.4766 16.823 30.7752C15.9271 30.9743 15.2303 31.6711 15.0312 32.567H0.497721C0.199088 32.567 0 32.7661 0 33.0647C0 33.3634 0.199088 33.5625 0.497721 33.5625ZM17.3207 31.6711C18.117 31.6711 18.7143 32.2684 18.7143 33.0647C18.7143 33.8611 18.117 34.4583 17.3207 34.4583C16.6239 34.4583 15.9271 33.8611 15.9271 33.0647C15.9271 32.2684 16.6239 31.6711 17.3207 31.6711Z" fill="url(#paint10_linear_4_137)"/>
<path d="M0.497664 48.5759H15.0311C15.3297 49.7705 16.5243 50.6664 17.8183 50.3677C19.1124 50.0691 19.9088 48.8746 19.6101 47.5805C19.3115 46.2864 18.117 45.4901 16.8229 45.6891C15.927 45.8882 15.2302 46.585 15.0311 47.5805H6.86849L10.1534 41.1101H15.0311C15.3297 42.3046 16.6238 43.101 17.8183 42.9019C19.1124 42.6033 19.9088 41.3092 19.6101 40.0151C19.3115 38.7211 18.117 37.9247 16.8229 38.2233C15.927 38.4224 15.2302 39.1192 15.0311 40.0151H9.85481C9.65573 40.0151 9.45664 40.1147 9.45664 40.3138L5.87305 47.4809H0.597208C0.298576 47.4809 0.0994873 47.68 0.0994873 47.9787C0.0994873 48.2773 0.199032 48.5759 0.497664 48.5759ZM17.3206 39.2188C18.117 39.2188 18.7142 39.816 18.7142 40.6124C18.7142 41.4087 18.117 42.006 17.3206 42.006C16.6238 41.9065 15.927 41.3092 15.927 40.5128C15.927 39.816 16.6238 39.2188 17.3206 39.2188ZM17.3206 46.6846C18.117 46.6846 18.7142 47.2819 18.7142 48.0782C18.7142 48.8746 18.117 49.4718 17.3206 49.4718C16.5243 49.4718 15.927 48.8746 15.927 48.0782C15.927 47.2819 16.6238 46.6846 17.3206 46.6846Z" fill="url(#paint11_linear_4_137)"/>
<path d="M55.5252 88.5899C55.8238 88.5899 56.0229 88.3909 56.0229 88.0922V73.5588C57.317 73.2601 58.1133 72.0656 57.8147 70.7715C57.5161 69.4775 56.3215 68.6811 55.0275 68.9797C53.7334 69.1788 52.937 70.4729 53.2357 71.767C53.4348 72.6629 54.1316 73.3597 55.0275 73.5588V88.0922C55.0275 88.3909 55.2265 88.5899 55.5252 88.5899ZM54.1316 71.2693C54.1316 70.4729 54.7288 69.8756 55.5252 69.8756C56.3215 69.8756 56.9188 70.4729 56.9188 71.2693C56.9188 72.0656 56.3215 72.6629 55.5252 72.6629C54.7288 72.6629 54.1316 71.9661 54.1316 71.2693Z" fill="url(#paint12_linear_4_137)"/>
<path d="M48.0771 88.5899C48.3757 88.5899 48.5748 88.3909 48.5748 88.0922V73.5588C49.7694 73.2601 50.6653 72.0656 50.3666 70.7715C50.068 69.4775 48.8735 68.6811 47.5794 68.9797C46.2853 69.1788 45.489 70.4729 45.688 71.767C45.8871 72.6629 46.5839 73.3597 47.4798 73.5588V81.7214L41.0095 78.4364V73.5588C42.3035 73.2601 43.0999 71.9661 42.9008 70.7715C42.7017 69.577 41.3081 68.6811 40.014 68.9797C38.72 69.1788 37.9236 70.4729 38.2222 71.767C38.4213 72.6629 39.1181 73.3597 40.014 73.5588V78.7351C40.014 78.9342 40.1136 79.1332 40.3127 79.1332L47.4798 82.7168V87.9927C47.5794 88.3909 47.7785 88.5899 48.0771 88.5899ZM39.2177 71.2693C39.2177 70.4729 39.8149 69.8756 40.6113 69.8756C41.4076 69.8756 42.0049 70.4729 42.0049 71.2693C42.0049 72.0656 41.4076 72.6629 40.6113 72.6629C39.8149 72.6629 39.2177 71.9661 39.2177 71.2693ZM46.6835 71.2693C46.6835 70.4729 47.2808 69.8756 48.0771 69.8756C48.8735 69.8756 49.4707 70.4729 49.4707 71.2693C49.4707 72.0656 48.8735 72.6629 48.0771 72.6629C47.2808 72.6629 46.6835 71.9661 46.6835 71.2693Z" fill="url(#paint13_linear_4_137)"/>
<path d="M17.3407 53.1373C16.0466 53.1373 14.9517 54.2323 14.9517 55.5264C14.9517 56.8205 16.0466 57.9154 17.3407 57.9154C18.6348 57.9154 19.7298 56.8205 19.7298 55.5264C19.7298 54.2323 18.6348 53.1373 17.3407 53.1373ZM17.3407 56.92C16.5444 56.92 15.9471 56.3227 15.9471 55.5264C15.9471 54.73 16.5444 54.1328 17.3407 54.1328C18.1371 54.1328 18.7343 54.73 18.7343 55.5264C18.7343 56.3227 18.1371 56.92 17.3407 56.92Z" fill="url(#paint14_linear_4_137)"/>
</g>
<defs>
<linearGradient id="paint0_linear_4_137" x1="21.8881" y1="21.8902" x2="158.731" y2="158.734" gradientUnits="userSpaceOnUse">
<stop stop-color="#EF4136"/>
<stop offset="1" stop-color="#FBB040"/>
</linearGradient>
<linearGradient id="paint1_linear_4_137" x1="27.3612" y1="27.3651" x2="164.204" y2="164.208" gradientUnits="userSpaceOnUse">
<stop stop-color="#EF4136"/>
<stop offset="1" stop-color="#FBB040"/>
</linearGradient>
<linearGradient id="paint2_linear_4_137" x1="38.8106" y1="38.8127" x2="175.654" y2="175.656" gradientUnits="userSpaceOnUse">
<stop stop-color="#EF4136"/>
<stop offset="1" stop-color="#FBB040"/>
</linearGradient>
<linearGradient id="paint3_linear_4_137" x1="68.8693" y1="45.6613" x2="205.713" y2="182.505" gradientUnits="userSpaceOnUse">
<stop stop-color="#EF4136"/>
<stop offset="1" stop-color="#FBB040"/>
</linearGradient>
<linearGradient id="paint4_linear_4_137" x1="30.6856" y1="68.8725" x2="167.529" y2="205.716" gradientUnits="userSpaceOnUse">
<stop stop-color="#EF4136"/>
<stop offset="1" stop-color="#FBB040"/>
</linearGradient>
<linearGradient id="paint5_linear_4_137" x1="28.6196" y1="2.055" x2="165.463" y2="138.898" gradientUnits="userSpaceOnUse">
<stop stop-color="#EF4136"/>
<stop offset="1" stop-color="#FBB040"/>
</linearGradient>
<linearGradient id="paint6_linear_4_137" x1="41.7218" y1="3.92697" x2="178.565" y2="140.77" gradientUnits="userSpaceOnUse">
<stop stop-color="#EF4136"/>
<stop offset="1" stop-color="#FBB040"/>
</linearGradient>
<linearGradient id="paint7_linear_4_137" x1="53.147" y1="14.9636" x2="189.99" y2="151.807" gradientUnits="userSpaceOnUse">
<stop stop-color="#EF4136"/>
<stop offset="1" stop-color="#FBB040"/>
</linearGradient>
<linearGradient id="paint8_linear_4_137" x1="68.6729" y1="30.8804" x2="205.516" y2="167.724" gradientUnits="userSpaceOnUse">
<stop stop-color="#EF4136"/>
<stop offset="1" stop-color="#FBB040"/>
</linearGradient>
<linearGradient id="paint9_linear_4_137" x1="72.4165" y1="49.5988" x2="209.26" y2="186.442" gradientUnits="userSpaceOnUse">
<stop stop-color="#EF4136"/>
<stop offset="1" stop-color="#FBB040"/>
</linearGradient>
<linearGradient id="paint10_linear_4_137" x1="3.92742" y1="26.7487" x2="140.771" y2="163.592" gradientUnits="userSpaceOnUse">
<stop stop-color="#EF4136"/>
<stop offset="1" stop-color="#FBB040"/>
</linearGradient>
<linearGradient id="paint11_linear_4_137" x1="2.05384" y1="36.1097" x2="138.897" y2="172.953" gradientUnits="userSpaceOnUse">
<stop stop-color="#EF4136"/>
<stop offset="1" stop-color="#FBB040"/>
</linearGradient>
<linearGradient id="paint12_linear_4_137" x1="49.5962" y1="72.4207" x2="186.44" y2="209.264" gradientUnits="userSpaceOnUse">
<stop stop-color="#EF4136"/>
<stop offset="1" stop-color="#FBB040"/>
</linearGradient>
<linearGradient id="paint13_linear_4_137" x1="38.3659" y1="68.6769" x2="175.209" y2="205.52" gradientUnits="userSpaceOnUse">
<stop stop-color="#EF4136"/>
<stop offset="1" stop-color="#FBB040"/>
</linearGradient>
<linearGradient id="paint14_linear_4_137" x1="14.9627" y1="53.1494" x2="151.806" y2="189.993" gradientUnits="userSpaceOnUse">
<stop stop-color="#EF4136"/>
<stop offset="1" stop-color="#FBB040"/>
</linearGradient>
<clipPath id="clip0_4_137">
<rect width="302.2" height="88.59" fill="white"/>
</clipPath>
</defs>
</svg>
