<svg width="76" height="106" viewBox="0 0 76 106" fill="none" xmlns="http://www.w3.org/2000/svg">
<path d="M63.6009 0.920074L10.6843 0.920074C4.95172 0.920074 0.39502 4.5078 0.39502 9.02139L0.39502 96.9786C0.39502 101.492 4.95172 105.08 10.6843 105.08L63.6009 105.08C69.3335 105.08 73.8902 101.492 73.8902 96.9786L73.8902 9.02139C73.8902 4.5078 69.3335 0.920074 63.6009 0.920074ZM6.27464 19.4374L68.0106 19.4374L68.0106 86.5626L6.27464 86.5626L6.27464 19.4374ZM10.6843 5.5494L63.6009 5.5494C66.0997 5.5494 68.0106 7.05393 68.0106 9.02139V14.808L6.27464 14.808L6.27464 9.02139C6.27464 7.05393 8.18551 5.5494 10.6843 5.5494ZM63.6009 100.451L10.6843 100.451C8.18551 100.451 6.27464 98.946 6.27464 96.9786L6.27464 91.1919L68.0106 91.1919V96.9786C68.0106 98.946 66.0997 100.451 63.6009 100.451ZM29.7931 10.1787C29.7931 8.90566 31.116 7.86406 32.7329 7.86406L41.5523 7.86406C43.1692 7.86406 44.4921 8.90566 44.4921 10.1787C44.4921 11.4518 43.1692 12.4934 41.5523 12.4934H32.7329C31.116 12.4934 29.7931 11.4518 29.7931 10.1787ZM40.0824 95.8212C40.0824 97.0943 38.7595 98.1359 37.1426 98.1359C35.5257 98.1359 34.2028 97.0943 34.2028 95.8212C34.2028 94.5482 35.5257 93.5066 37.1426 93.5066C38.7595 93.5066 40.0824 94.5482 40.0824 95.8212Z" fill="#555555"/>
</svg>
