<svg width="80" height="106" viewBox="0 0 80 106" fill="none" xmlns="http://www.w3.org/2000/svg">
<g clip-path="url(#clip0_57_491)">
<path fill-rule="evenodd" clip-rule="evenodd" d="M4.53762 0.0485229L76.3386 0.0485229C78.3056 0.0485229 79.9001 1.51682 79.9001 3.32456L79.9001 101.8C79.9001 103.609 78.2773 105.076 76.3386 105.076L4.53762 105.076C2.57062 105.076 0.976044 103.607 0.976044 101.8L0.976044 3.32456C0.976044 1.51526 2.59887 0.0485229 4.53762 0.0485229ZM8.15096 6.61272L72.7252 6.61272L72.7252 52.5621L8.15096 52.5621L8.15096 6.61272ZM58.3754 78.8189C58.3754 69.7556 50.3446 62.4084 40.4381 62.4084C30.5316 62.4084 22.5008 69.7556 22.5008 78.8189C22.5008 87.8821 30.5316 95.2294 40.4381 95.2294C50.3446 95.2294 58.3754 87.8821 58.3754 78.8189ZM47.613 78.8189C47.613 82.4442 44.4007 85.3831 40.4381 85.3831C36.4755 85.3831 33.2632 82.4442 33.2632 78.8189C33.2632 75.1936 36.4755 72.2547 40.4381 72.2547C44.4007 72.2547 47.613 75.1936 47.613 78.8189Z" fill="#555555"/>
</g>
<defs>
<clipPath id="clip0_57_491">
<rect width="80" height="106" fill="white"/>
</clipPath>
</defs>
</svg>
