<svg width="106" height="106" viewBox="0 0 106 106" fill="none" xmlns="http://www.w3.org/2000/svg">
<g clip-path="url(#clip0_44_444)">
<path d="M105.925 3.13442C105.822 1.48965 104.696 0.188873 103.307 0.188873L3.08196 0.188873C1.69358 0.188873 0.566838 1.48965 0.464503 3.13442L0.444458 84.9115C0.444458 86.6709 1.62501 88.0966 3.08196 88.0966L103.307 88.0966C104.764 88.0966 105.945 86.6709 105.945 84.9115L105.925 3.13442ZM101.725 72.8083L4.66447 72.8083L4.66447 5.28497L101.725 5.28497L101.725 72.8083Z" fill="#555555"/>
<path d="M70.0747 103.385C65.8546 102.111 64.7996 98.2888 64.7996 93.1927V91.9186L53.1946 91.9186H41.5896V93.1927C41.5896 98.2888 40.5346 102.111 36.3146 103.385C35.2912 103.693 35.2596 105.933 36.3146 105.933H53.1946L70.0747 105.933C71.1297 105.933 71.098 103.693 70.0747 103.385Z" fill="#555555"/>
</g>
<defs>
<clipPath id="clip0_44_444">
<rect width="106" height="106" fill="white"/>
</clipPath>
</defs>
</svg>
