<svg width="100" height="100" viewBox="0 0 100 100" fill="none" xmlns="http://www.w3.org/2000/svg">
<path d="M96.7166 34.109L91.6903 34.109C91.8308 33.5565 91.9114 32.9768 91.9114 32.3755C91.9114 28.834 89.3001 25.9511 86.0893 25.9511C85.4664 25.9511 84.8695 26.0616 84.3064 26.2625L66.5851 6.70798C66.5955 6.57022 66.6215 6.4382 66.6215 6.29901C66.6215 3.76483 64.7527 1.70276 62.4574 1.70276C60.1621 1.70276 58.2934 3.76483 58.2934 6.29901C58.2934 8.83319 60.1621 10.8953 62.4574 10.8953C62.5849 10.8953 62.7032 10.8666 62.8281 10.8536L80.5493 30.4082C80.3673 31.0281 80.2671 31.6896 80.2671 32.3755C80.2671 32.9768 80.3478 33.558 80.4895 34.109L3.21005 34.109C1.74314 34.109 0.553223 35.422 0.553223 37.0407L0.553223 95.4402C0.553223 97.0589 1.74314 98.3719 3.21005 98.3719L96.7166 98.3719C98.1848 98.3719 99.3734 97.0589 99.3734 95.4402V37.0407C99.3734 35.422 98.1848 34.109 96.7166 34.109ZM94.0598 39.9723V83.9302L5.86688 83.9302L5.86688 39.9723L94.0598 39.9723ZM5.86688 92.5085L5.86688 87.4488L94.0598 87.4488V92.5085L5.86688 92.5085Z" fill="#555555"/>
<path d="M28.5091 80.4303C37.5915 80.4303 44.9806 72.2767 44.9806 62.2548C44.9806 52.2314 37.5915 44.0778 28.5091 44.0778C19.4267 44.0778 12.0375 52.2328 12.0375 62.2548C12.0375 72.2781 19.4267 80.4303 28.5091 80.4303ZM28.5091 47.5964C35.8332 47.5964 41.7932 54.1729 41.7932 62.2548C41.7932 70.3366 35.8332 76.9131 28.5091 76.9131C21.1836 76.9131 15.2249 70.3366 15.2249 62.2548C15.2249 54.1729 21.1836 47.5964 28.5091 47.5964Z" fill="#555555"/>
<path d="M23.9666 52.0664C26.4232 50.7319 29.2035 50.5281 31.7966 51.501C34.391 52.4725 36.4848 54.5016 37.6968 57.2122C37.8828 57.6255 38.2586 57.8666 38.6513 57.8666C38.8087 57.8666 38.9686 57.8278 39.1195 57.7461C39.6462 57.4591 39.862 56.7559 39.6033 56.1762C38.1402 52.903 35.6122 50.4549 32.4807 49.2825C29.3505 48.1116 25.9927 48.3512 23.0264 49.967C22.501 50.2526 22.2838 50.9557 22.5439 51.5369C22.8027 52.1137 23.4386 52.3534 23.9666 52.0664Z" fill="#555555"/>
<path d="M28.0292 75.8684C28.0435 75.8684 28.0565 75.8684 28.0708 75.8684C28.6391 75.8684 29.1099 75.3719 29.132 74.742C29.1554 74.0948 28.699 73.551 28.1111 73.5251C25.1669 73.3974 22.4152 71.8864 20.5607 69.378C20.1875 68.8758 19.5177 68.8026 19.0652 69.213C18.6113 69.6205 18.5437 70.361 18.9143 70.8618C21.155 73.891 24.4777 75.7149 28.0292 75.8684Z" fill="#555555"/>
<path d="M28.509 56.4273C25.5973 56.4273 23.2279 59.0404 23.2279 62.2562C23.2279 65.4677 25.5973 68.0837 28.509 68.0837C31.4208 68.0837 33.7902 65.4691 33.7902 62.2562C33.7902 59.0404 31.4208 56.4273 28.509 56.4273ZM28.509 64.5651C27.3542 64.5651 26.4166 63.5276 26.4166 62.2562C26.4166 60.9819 27.3555 59.9473 28.509 59.9473C29.6626 59.9473 30.6015 60.9834 30.6015 62.2562C30.6015 63.5276 29.6626 64.5651 28.509 64.5651Z" fill="#555555"/>
<path d="M57.5222 56.3928L86.0893 56.3928C86.9697 56.3928 87.6836 55.605 87.6836 54.6336V45.8371C87.6836 44.8656 86.9697 44.0778 86.0893 44.0778L57.5222 44.0778C56.6418 44.0778 55.9279 44.8656 55.9279 45.8371V54.6336C55.9292 55.6065 56.6418 56.3928 57.5222 56.3928ZM84.4949 52.8757L73.3995 52.8757V47.5964L84.4949 47.5964V52.8757ZM59.1179 47.5964L70.2107 47.5964V52.8757L59.1179 52.8757V47.5964Z" fill="#555555"/>
<path d="M86.0893 60.461L71.8064 60.461C70.9247 60.461 70.212 61.2488 70.212 62.2203C70.212 63.1918 70.9247 63.9796 71.8064 63.9796L86.0893 63.9796C86.9697 63.9796 87.6836 63.1918 87.6836 62.2203C87.6836 61.2488 86.9697 60.461 86.0893 60.461Z" fill="#555555"/>
<path d="M86.0893 66.676L71.8064 66.676C70.9247 66.676 70.212 67.4638 70.212 68.4353C70.212 69.4067 70.9247 70.1945 71.8064 70.1945H86.0893C86.9697 70.1945 87.6836 69.4067 87.6836 68.4353C87.6836 67.4638 86.9697 66.676 86.0893 66.676Z" fill="#555555"/>
<path d="M86.0893 72.8909H82.4324C81.5507 72.8909 80.8381 73.6787 80.8381 74.6502C80.8381 75.6216 81.5507 76.4094 82.4324 76.4094H86.0893C86.9697 76.4094 87.6837 75.6216 87.6837 74.6502C87.6837 73.6787 86.9697 72.8909 86.0893 72.8909Z" fill="#555555"/>
</svg>
