<svg width="106" height="106" viewBox="0 0 106 106" fill="none" xmlns="http://www.w3.org/2000/svg">
<path d="M99.9621 0.577545L5.64496 0.577545C2.62101 0.577545 0.8078 2.21807 0.8078 4.95403L0.8078 101.229C0.8078 103.964 2.62101 105.605 5.64496 105.605L99.9609 105.605C102.986 105.605 104.798 103.964 104.798 101.229L104.798 4.95403C104.799 2.21807 102.986 0.577545 99.9621 0.577545ZM97.5441 96.8528C97.5441 98.2202 96.6386 99.0405 95.1261 99.0405L10.4821 99.0405C8.97073 99.0405 8.06412 98.2202 8.06412 96.8528L8.06412 9.32946C8.06412 7.962 8.97073 7.14174 10.4821 7.14174L95.1261 7.14174C96.6386 7.14174 97.5441 7.962 97.5441 9.32946L97.5441 96.8528Z" fill="#555555"/>
<path d="M52.8279 91.9501C55.8327 91.9501 58.2687 89.7462 58.2687 87.0275C58.2687 84.3088 55.8327 82.1049 52.8279 82.1049C49.823 82.1049 47.3871 84.3088 47.3871 87.0275C47.3871 89.7462 49.823 91.9501 52.8279 91.9501Z" fill="#555555"/>
</svg>
