<svg width="150" height="90" viewBox="0 0 150 90" fill="none" xmlns="http://www.w3.org/2000/svg">
<g clip-path="url(#clip0_109_2)">
<path d="M145.433 0.520752C147.902 0.520752 149.902 2.28025 149.902 4.45266V85.9075C149.902 88.0773 147.902 89.8368 145.433 89.8368H4.80834C2.33757 89.8368 0.339417 88.0773 0.339417 85.9075V4.45266C0.339417 2.28156 2.33757 0.520752 4.80834 0.520752H145.433ZM4.93696 4.25409V79.819H145.306V4.25409H4.93696ZM144.019 84.0626C144.019 83.3525 143.364 82.7739 142.555 82.7739H141.127C140.316 82.7739 139.661 83.3525 139.661 84.0626C139.661 84.7766 140.316 85.3513 141.127 85.3513H142.555C143.364 85.3513 144.019 84.7766 144.019 84.0626Z" fill="#555555"/>
</g>
<defs>
<clipPath id="clip0_109_2">
<rect width="150" height="90" fill="white"/>
</clipPath>
</defs>
</svg>
